<svg width="98" height="21" viewBox="0 0 98 21" fill="none" xmlns="http://www.w3.org/2000/svg">
<path d="M0 0L12.4 9.9569L24 0V21L12.4 9.9569L0 21V0Z" fill="#3C383B"/>
<path d="M42.6364 4.36364V16H41.2727L34.9318 6.86364H34.8182V16H33.4091V4.36364H34.7727L41.1364 13.5227H41.25V4.36364H42.6364ZM48.8196 16.1818C48.0317 16.1818 47.3404 15.9943 46.7457 15.6193C46.1548 15.2443 45.6927 14.7197 45.3594 14.0455C45.0298 13.3712 44.8651 12.5833 44.8651 11.6818C44.8651 10.7727 45.0298 9.97917 45.3594 9.30114C45.6927 8.62311 46.1548 8.09659 46.7457 7.72159C47.3404 7.34659 48.0317 7.15909 48.8196 7.15909C49.6075 7.15909 50.2969 7.34659 50.8878 7.72159C51.4825 8.09659 51.9446 8.62311 52.2741 9.30114C52.6075 9.97917 52.7741 10.7727 52.7741 11.6818C52.7741 12.5833 52.6075 13.3712 52.2741 14.0455C51.9446 14.7197 51.4825 15.2443 50.8878 15.6193C50.2969 15.9943 49.6075 16.1818 48.8196 16.1818ZM48.8196 14.9773C49.4181 14.9773 49.9105 14.8239 50.2969 14.517C50.6832 14.2102 50.9692 13.8068 51.1548 13.3068C51.3404 12.8068 51.4332 12.2652 51.4332 11.6818C51.4332 11.0985 51.3404 10.5549 51.1548 10.0511C50.9692 9.54735 50.6832 9.14015 50.2969 8.82955C49.9105 8.51894 49.4181 8.36364 48.8196 8.36364C48.2211 8.36364 47.7287 8.51894 47.3423 8.82955C46.956 9.14015 46.67 9.54735 46.4844 10.0511C46.2988 10.5549 46.206 11.0985 46.206 11.6818C46.206 12.2652 46.2988 12.8068 46.4844 13.3068C46.67 13.8068 46.956 14.2102 47.3423 14.517C47.7287 14.8239 48.2211 14.9773 48.8196 14.9773ZM58.6165 7.27273V8.40909H54.0938V7.27273H58.6165ZM55.4119 5.18182H56.7528V13.5C56.7528 13.8788 56.8078 14.1629 56.9176 14.3523C57.0313 14.5379 57.1752 14.6629 57.3494 14.7273C57.5275 14.7879 57.715 14.8182 57.9119 14.8182C58.0597 14.8182 58.1809 14.8106 58.2756 14.7955C58.3703 14.7765 58.446 14.7614 58.5028 14.75L58.7756 15.9545C58.6847 15.9886 58.5578 16.0227 58.3949 16.0568C58.232 16.0947 58.0256 16.1136 57.7756 16.1136C57.3968 16.1136 57.0256 16.0322 56.6619 15.8693C56.3021 15.7064 56.0028 15.4583 55.7642 15.125C55.5294 14.7917 55.4119 14.3712 55.4119 13.8636V5.18182ZM64.1989 16.1818C63.358 16.1818 62.6326 15.9962 62.0227 15.625C61.4167 15.25 60.9489 14.7273 60.6193 14.0568C60.2936 13.3826 60.1307 12.5985 60.1307 11.7045C60.1307 10.8106 60.2936 10.0227 60.6193 9.34091C60.9489 8.6553 61.4072 8.12121 61.9943 7.73864C62.5852 7.35227 63.2746 7.15909 64.0625 7.15909C64.517 7.15909 64.9659 7.23485 65.4091 7.38636C65.8523 7.53788 66.2557 7.78409 66.6193 8.125C66.983 8.46212 67.2727 8.90909 67.4886 9.46591C67.7045 10.0227 67.8125 10.7083 67.8125 11.5227V12.0909H61.0852V10.9318H66.4489C66.4489 10.4394 66.3504 10 66.1534 9.61364C65.9602 9.22727 65.6837 8.92235 65.3239 8.69886C64.9678 8.47538 64.5473 8.36364 64.0625 8.36364C63.5284 8.36364 63.0663 8.49621 62.6761 8.76136C62.2898 9.02273 61.9924 9.36364 61.7841 9.78409C61.5758 10.2045 61.4716 10.6553 61.4716 11.1364V11.9091C61.4716 12.5682 61.5852 13.1269 61.8125 13.5852C62.0436 14.0398 62.3636 14.3864 62.7727 14.625C63.1818 14.8598 63.6572 14.9773 64.1989 14.9773C64.5511 14.9773 64.8693 14.928 65.1534 14.8295C65.4413 14.7273 65.6894 14.5758 65.8977 14.375C66.1061 14.1705 66.267 13.9167 66.3807 13.6136L67.6761 13.9773C67.5398 14.4167 67.3106 14.803 66.9886 15.1364C66.6667 15.4659 66.2689 15.7235 65.7955 15.9091C65.322 16.0909 64.7898 16.1818 64.1989 16.1818ZM69.8523 19.2727V7.27273H71.1477V8.65909H71.3068C71.4053 8.50758 71.5417 8.31439 71.7159 8.07955C71.8939 7.84091 72.1477 7.62879 72.4773 7.44318C72.8106 7.25379 73.2614 7.15909 73.8295 7.15909C74.5644 7.15909 75.2121 7.3428 75.7727 7.71023C76.3333 8.07765 76.7708 8.59848 77.0852 9.27273C77.3996 9.94697 77.5568 10.7424 77.5568 11.6591C77.5568 12.5833 77.3996 13.3845 77.0852 14.0625C76.7708 14.7367 76.3352 15.2595 75.7784 15.6307C75.2216 15.9981 74.5795 16.1818 73.8523 16.1818C73.2917 16.1818 72.8428 16.089 72.5057 15.9034C72.1686 15.714 71.9091 15.5 71.7273 15.2614C71.5455 15.0189 71.4053 14.8182 71.3068 14.6591H71.1932V19.2727H69.8523ZM71.1705 11.6364C71.1705 12.2955 71.267 12.8769 71.4602 13.3807C71.6534 13.8807 71.9356 14.2727 72.3068 14.5568C72.678 14.8371 73.1326 14.9773 73.6705 14.9773C74.2311 14.9773 74.6989 14.8295 75.0739 14.5341C75.4527 14.2348 75.7367 13.8333 75.9261 13.3295C76.1193 12.822 76.2159 12.2576 76.2159 11.6364C76.2159 11.0227 76.1212 10.4697 75.9318 9.97727C75.7462 9.48106 75.464 9.08902 75.0852 8.80114C74.7102 8.50947 74.2386 8.36364 73.6705 8.36364C73.125 8.36364 72.6667 8.50189 72.2955 8.77841C71.9242 9.05114 71.6439 9.43371 71.4545 9.92614C71.2652 10.4148 71.1705 10.9848 71.1705 11.6364ZM82.1705 16.2045C81.6174 16.2045 81.1155 16.1004 80.6648 15.892C80.214 15.6799 79.8561 15.375 79.5909 14.9773C79.3258 14.5758 79.1932 14.0909 79.1932 13.5227C79.1932 13.0227 79.2917 12.6174 79.4886 12.3068C79.6856 11.9924 79.9489 11.7462 80.2784 11.5682C80.608 11.3902 80.9716 11.2576 81.3693 11.1705C81.7708 11.0795 82.1742 11.0076 82.5795 10.9545C83.1098 10.8864 83.5398 10.8352 83.8693 10.8011C84.2027 10.7633 84.4451 10.7008 84.5966 10.6136C84.7519 10.5265 84.8295 10.375 84.8295 10.1591V10.1136C84.8295 9.55303 84.6761 9.11742 84.3693 8.80682C84.0663 8.49621 83.6061 8.34091 82.9886 8.34091C82.3485 8.34091 81.8466 8.48106 81.483 8.76136C81.1193 9.04167 80.8636 9.34091 80.7159 9.65909L79.4432 9.20455C79.6705 8.67424 79.9735 8.26136 80.3523 7.96591C80.7348 7.66667 81.1515 7.45833 81.6023 7.34091C82.0568 7.2197 82.5038 7.15909 82.9432 7.15909C83.2235 7.15909 83.5455 7.19318 83.9091 7.26136C84.2765 7.32576 84.6307 7.46023 84.9716 7.66477C85.3163 7.86932 85.6023 8.17803 85.8295 8.59091C86.0568 9.00379 86.1705 9.55682 86.1705 10.25V16H84.8295V14.8182H84.7614C84.6705 15.0076 84.5189 15.2102 84.3068 15.4261C84.0947 15.642 83.8125 15.8258 83.4602 15.9773C83.108 16.1288 82.678 16.2045 82.1705 16.2045ZM82.375 15C82.9053 15 83.3523 14.8958 83.7159 14.6875C84.0833 14.4792 84.3598 14.2102 84.5455 13.8807C84.7348 13.5511 84.8295 13.2045 84.8295 12.8409V11.6136C84.7727 11.6818 84.6477 11.7443 84.4545 11.8011C84.2652 11.8542 84.0455 11.9015 83.7955 11.9432C83.5492 11.9811 83.3087 12.0152 83.0739 12.0455C82.8428 12.072 82.6553 12.0947 82.5114 12.1136C82.1629 12.1591 81.8371 12.233 81.5341 12.3352C81.2348 12.4337 80.9924 12.5833 80.8068 12.7841C80.625 12.9811 80.5341 13.25 80.5341 13.5909C80.5341 14.0568 80.7064 14.4091 81.0511 14.6477C81.3996 14.8826 81.8409 15 82.375 15ZM91.9134 16.1818C91.1861 16.1818 90.544 15.9981 89.9872 15.6307C89.4304 15.2595 88.9948 14.7367 88.6804 14.0625C88.366 13.3845 88.2088 12.5833 88.2088 11.6591C88.2088 10.7424 88.366 9.94697 88.6804 9.27273C88.9948 8.59848 89.4323 8.07765 89.9929 7.71023C90.5535 7.3428 91.2012 7.15909 91.9361 7.15909C92.5043 7.15909 92.9531 7.25379 93.2827 7.44318C93.616 7.62879 93.8698 7.84091 94.044 8.07955C94.2221 8.31439 94.3603 8.50758 94.4588 8.65909H94.5724V4.36364H95.9134V16H94.6179V14.6591H94.4588C94.3603 14.8182 94.2202 15.0189 94.0384 15.2614C93.8565 15.5 93.5971 15.714 93.2599 15.9034C92.9228 16.089 92.474 16.1818 91.9134 16.1818ZM92.0952 14.9773C92.633 14.9773 93.0876 14.8371 93.4588 14.5568C93.83 14.2727 94.1122 13.8807 94.3054 13.3807C94.4986 12.8769 94.5952 12.2955 94.5952 11.6364C94.5952 10.9848 94.5005 10.4148 94.3111 9.92614C94.1217 9.43371 93.8414 9.05114 93.4702 8.77841C93.099 8.50189 92.6406 8.36364 92.0952 8.36364C91.527 8.36364 91.0535 8.50947 90.6747 8.80114C90.2997 9.08902 90.0175 9.48106 89.8281 9.97727C89.6425 10.4697 89.5497 11.0227 89.5497 11.6364C89.5497 12.2576 89.6444 12.822 89.8338 13.3295C90.027 13.8333 90.3111 14.2348 90.6861 14.5341C91.0649 14.8295 91.5346 14.9773 92.0952 14.9773Z" fill="black"/>
</svg>
