<svg width="25" height="25" viewBox="0 0 25 25" fill="none" xmlns="http://www.w3.org/2000/svg">
<path d="M11.1333 5.72907H6.1333C5.60287 5.72907 5.09416 5.93979 4.71909 6.31486C4.34401 6.68993 4.1333 7.19864 4.1333 7.72907V18.7291C4.1333 19.2595 4.34401 19.7682 4.71909 20.1433C5.09416 20.5184 5.60287 20.7291 6.1333 20.7291H17.1333C17.6637 20.7291 18.1724 20.5184 18.5475 20.1433C18.9226 19.7682 19.1333 19.2595 19.1333 18.7291V13.7291M17.7193 4.31507C17.9038 4.12405 18.1245 3.97169 18.3685 3.86687C18.6125 3.76205 18.8749 3.70688 19.1405 3.70457C19.4061 3.70227 19.6694 3.75287 19.9152 3.85343C20.161 3.95399 20.3843 4.1025 20.5721 4.29028C20.7599 4.47807 20.9084 4.70137 21.0089 4.94717C21.1095 5.19296 21.1601 5.45632 21.1578 5.72188C21.1555 5.98744 21.1003 6.24988 20.9955 6.49388C20.8907 6.73789 20.7383 6.95858 20.5473 7.14307L11.9613 15.7291H9.1333V12.9011L17.7193 4.31507Z" stroke="black" stroke-width="2" stroke-linecap="round" stroke-linejoin="round"/>
</svg>
