<svg width="25" height="25" viewBox="0 0 25 25" fill="none" xmlns="http://www.w3.org/2000/svg">
<path fill-rule="evenodd" clip-rule="evenodd" d="M12.9295 3.7968C13.2477 3.7968 13.553 3.92323 13.778 4.14827C14.0031 4.37331 14.1295 4.67854 14.1295 4.9968V10.9968H20.1295C20.4477 10.9968 20.753 11.1232 20.978 11.3483C21.2031 11.5733 21.3295 11.8785 21.3295 12.1968C21.3295 12.5151 21.2031 12.8203 20.978 13.0453C20.753 13.2704 20.4477 13.3968 20.1295 13.3968H14.1295V19.3968C14.1295 19.7151 14.0031 20.0203 13.778 20.2453C13.553 20.4704 13.2477 20.5968 12.9295 20.5968C12.6112 20.5968 12.306 20.4704 12.081 20.2453C11.8559 20.0203 11.7295 19.7151 11.7295 19.3968V13.3968H5.72948C5.41122 13.3968 5.106 13.2704 4.88095 13.0453C4.65591 12.8203 4.52948 12.5151 4.52948 12.1968C4.52948 11.8785 4.65591 11.5733 4.88095 11.3483C5.106 11.1232 5.41122 10.9968 5.72948 10.9968H11.7295V4.9968C11.7295 4.67854 11.8559 4.37331 12.081 4.14827C12.306 3.92323 12.6112 3.7968 12.9295 3.7968Z" fill="#f6f6f6"/>
</svg>
