<svg width="25" height="25" viewBox="0 0 25 25" fill="none" xmlns="http://www.w3.org/2000/svg">
<path d="M19.046 7.61244L18.179 19.7544C18.1431 20.259 17.9173 20.7313 17.5471 21.076C17.177 21.4208 16.6899 21.6125 16.184 21.6124H7.90802C7.40216 21.6125 6.91509 21.4208 6.54491 21.076C6.17472 20.7313 5.94894 20.259 5.91302 19.7544L5.04602 7.61244M10.046 11.6124V17.6124M14.046 11.6124V17.6124M15.046 7.61244V4.61244C15.046 4.34723 14.9407 4.09287 14.7531 3.90534C14.5656 3.7178 14.3112 3.61244 14.046 3.61244H10.046C9.7808 3.61244 9.52645 3.7178 9.33891 3.90534C9.15138 4.09287 9.04602 4.34723 9.04602 4.61244V7.61244M4.04602 7.61244H20.046" stroke="black" stroke-width="2" stroke-linecap="round" stroke-linejoin="round"/>
</svg>
